{"title":"Backyard.aka.El traspatio.2009.x264.AC3.Nordic.mkv.Zen_Bud","uid":5817805,"size":1324199034,"categoryP":"video","categoryS":"movies","magnet":"?xt=urn:btih:8bbe843211802c9397591bb2007cae5c736b958d&amp;dn=Backyard.aka.El+traspatio.2009.x264.AC3.Nordic.mkv.Zen_Bud&amp;tr=udp%3A%2F%2Ftracker.openbittorrent.com%3A80&amp;tr=udp%3A%2F%2Fopen.demonii.com%3A1337&amp;tr=udp%3A%2F%2Ftracker.coppersurfer.tk%3A6969&amp;tr=udp%3A%2F%2Fexodus.desync.com%3A6969","seeders":0,"leechers":0,"uploader":"Zen_Bud","files":-1,"time":1283931233,"description":"\n**** Backyard.aka.El traspatio.2009.x264.AC3.Nordic.mkv.Zen_Bud ****\n\nFormat                           : Matroska\nFile size                        : 1.23 GiB\nDuration                         : 1h 57mn\nOverall bit rate                 : 1 507 Kbps\nWriting application              : HandBrake svn3507\nWriting library                  : libmkv 0.6.4.1\n\nVideo\n\nFormat                           : AVC\nDuration                         : 1h 57mn\nBit rate                         : 1 029 Kbps\nWidth                            : 720 pixels\nHeight                           : 424 pixels\nDisplay aspect ratio             : 2.40:1\nStream size                      : 862 MiB (68%)\nWriting library                  : x264 core 104\n\n\nAudio\n\nFormat                           : AC-3\nDuration                         : 1h 57mn\nBit rate                         : 448 Kbps\nChannel(s)                       : 6 channels\nChannel positions                : Front: L C R, Side: L R, LFE\nSampling rate                    : 48.0 KHz\nBit depth                        : 16 bits\nStream size                      : 375 MiB (30%)\nLanguage.........................: Spanish\n\nText #1\nLanguage                         : Finnish\n\nText #2\nLanguage                         : Norwegian\n\nText #3\nLanguage                         : Swedish\n\nText #4\nLanguage                         : Danish\n\nMenu\n00:00:00.000                     : Chapter  1\n00:08:27.280                     : Chapter  2\n\n\n","torrent":{"xt":"urn:btih:8bbe843211802c9397591bb2007cae5c736b958d","amp;dn":"Backyard.aka.El+traspatio.2009.x264.AC3.Nordic.mkv.Zen_Bud","amp;tr":["udp%3A%2F%2Ftracker.openbittorrent.com%3A80","udp%3A%2F%2Fopen.demonii.com%3A1337","udp%3A%2F%2Ftracker.coppersurfer.tk%3A6969","udp%3A%2F%2Fexodus.desync.com%3A6969"],"infoHash":"8bbe843211802c9397591bb2007cae5c736b958d","infoHashBuffer":{"type":"Buffer","data":[139,190,132,50,17,128,44,147,151,89,27,178,0,124,174,92,115,107,149,141]},"announce":[],"urlList":[]}}